<?xml version="1.0" encoding="utf-8"?>
<!-- Generator: Adobe Illustrator 23.0.5, SVG Export Plug-In . SVG Version: 6.00 Build 0)  -->
<svg version="1.1" id="图层_1" xmlns="http://www.w3.org/2000/svg" xmlns:xlink="http://www.w3.org/1999/xlink" x="0px" y="0px"
	 viewBox="0 0 595.28 841.89" style="enable-background:new 0 0 595.28 841.89;" xml:space="preserve">
<style type="text/css">
	.st0{fill:none;stroke:#000000;stroke-width:8;stroke-miterlimit:10;}
	.st1{stroke:#000000;stroke-width:5;stroke-miterlimit:10;}
</style>
<path class="st0" d="M146.77,363.07c0,0-27.11-6.42-24.97,22.12"/>
<path class="st0" d="M122.63,381.45c0,0-3.57,15.48,17.12,23.92c0,0,60.65,106.91,148.41,4.22c0,0,21.19-9.55,21.19-20.4
	c0-0.93-0.16-1.87-0.49-2.81c-4.28-11.96,0.49,1.88,0.49,1.88s9.5-20.18-9.77-25.81"/>
<circle class="st1" cx="183.94" cy="378.1" r="7.09"/>
<path class="st0" d="M307.42,361.5c-42.43,11.65-86.95-43.29-86.95-43.29s-39.65,46.53-79.3,44.91"/>
<circle class="st1" cx="250.3" cy="380.06" r="7.09"/>
<path class="st0" d="M208.12,411.68c0,0,5.71,14.27,17.84,1.43"/>
<line class="st0" x1="167.58" y1="395.27" x2="169.72" y2="403.84"/>
<line class="st0" x1="178.99" y1="393.85" x2="182.56" y2="403.84"/>
<line class="st0" x1="250.3" y1="394.56" x2="246.78" y2="403.84"/>
<line class="st0" x1="257.38" y1="395.99" x2="257.38" y2="403.84"/>
<line class="st0" x1="215.38" y1="393.85" x2="215.38" y2="398.84"/>
<path class="st0" d="M322.57,336.03c-31.13-77.49-114.92-65.33-117.35-63.17c-53.57-5.8-94.36,68.81-90.79,72.74
	c0,0-18.58,91.35-7.07,140.24"/>
<path class="st0" d="M322.29,334.56c0,0,22.95,93.84,6.54,142.76"/>
<path class="st0" d="M182.56,503.64c-12.09-8.55,1.38-12.38,1.38-12.38l2.19-39.61c0,0-51.14,35.01-74.92,107.02"/>
<path class="st0" d="M244.04,450.12c0,0,51.14,35.01,74.92,107.02"/>
<line class="st0" x1="330.36" y1="472.23" x2="309.94" y2="534.11"/>
<path class="st0" d="M183.94,491.25"/>
<path class="st0" d="M182.42,490.12c0,0,20.63,9.04-2.93,11.96"/>
<path class="st0" d="M242.1,450.88l-3.39,39.42c0,0-8.56-0.54-4.64,6.42c3.92,6.96,3.92,6.96,3.92,6.96s3.75,0,7.31-4.82
	c3.57-4.82-4.64-8.03-4.64-8.03"/>
<path class="st0" d="M274.91,287.12c0,0,62.47-88.66,68.02-56.06s-50.41,62.43-50.41,62.43"/>
<path class="st0" d="M162.38,288.53c0,0-77.4-75.98-77-42.91c0.41,33.07,60.82,52.35,60.82,52.35"/>
<g>
	<path d="M375.48,338.66h20.18v9.31h-8.08v8.82h7.56v8.85h-7.56v10.23h8.88v9.31h-20.98V338.66z"/>
	<path d="M411.21,347.05l-0.46,5.02c1.69-3.59,4.13-5.49,7.33-5.71v13.42c-2.13,0-3.69,0.29-4.68,0.86c-1,0.57-1.61,1.37-1.84,2.4
		c-0.23,1.03-0.34,3.39-0.34,7.08v15.06H399.6v-38.14H411.21z"/>
	<path d="M432.62,338.66v6.06h-11.96v-6.06H432.62z M432.62,347.05v38.14h-11.96v-38.14H432.62z"/>
	<path d="M443.54,338.66v4.17c0,2.17-0.26,3.95-0.78,5.36s-1.41,2.6-2.69,3.56c-1.27,0.97-2.72,1.62-4.33,1.97v-3.36
		c1.15-0.63,1.8-1.49,1.95-2.59h-1.95v-9.11H443.54z"/>
	<path d="M470.39,359.24H460.1v-2.07c0-1.76-0.1-2.88-0.3-3.35s-0.7-0.7-1.51-0.7c-0.65,0-1.14,0.22-1.47,0.65
		c-0.33,0.43-0.49,1.08-0.49,1.94c0,1.17,0.08,2.03,0.24,2.57c0.16,0.55,0.65,1.14,1.47,1.8s2.49,1.6,5.02,2.85
		c3.37,1.65,5.59,3.2,6.64,4.66c1.05,1.46,1.58,3.57,1.58,6.35c0,3.1-0.4,5.45-1.21,7.03c-0.8,1.58-2.15,2.8-4.04,3.65
		c-1.89,0.85-4.16,1.28-6.83,1.28c-2.95,0-5.48-0.46-7.57-1.38c-2.1-0.92-3.54-2.17-4.33-3.74s-1.18-3.95-1.18-7.13v-1.84h10.29
		v2.41c0,2.05,0.13,3.38,0.39,4c0.26,0.61,0.77,0.92,1.54,0.92c0.82,0,1.4-0.21,1.72-0.62c0.33-0.41,0.49-1.28,0.49-2.6
		c0-1.82-0.21-2.96-0.63-3.42c-0.44-0.46-2.69-1.82-6.75-4.08c-3.41-1.92-5.49-3.66-6.24-5.22c-0.75-1.56-1.12-3.42-1.12-5.56
		c0-3.05,0.4-5.29,1.21-6.74s2.17-2.56,4.1-3.35c1.93-0.79,4.16-1.18,6.71-1.18c2.53,0,4.68,0.32,6.45,0.96
		c1.77,0.64,3.13,1.49,4.08,2.54c0.95,1.05,1.52,2.03,1.72,2.93s0.3,2.31,0.3,4.23V359.24z"/>
	<path d="M401.55,409.29v46.53h-11.61v-2.77c-1.11,1.15-2.28,2.02-3.51,2.59c-1.23,0.58-2.51,0.86-3.85,0.86
		c-1.8,0-3.36-0.47-4.68-1.42c-1.32-0.95-2.17-2.05-2.54-3.29c-0.37-1.25-0.56-3.28-0.56-6.09v-17.85c0-2.93,0.19-5.01,0.56-6.24
		c0.37-1.23,1.23-2.3,2.57-3.23c1.34-0.93,2.94-1.39,4.8-1.39c1.44,0,2.75,0.26,3.95,0.78c1.2,0.52,2.29,1.3,3.26,2.33v-10.81
		H401.55z M389.94,427.29c0-1.4-0.12-2.34-0.36-2.82c-0.24-0.48-0.71-0.72-1.42-0.72c-0.69,0-1.15,0.22-1.39,0.65
		c-0.24,0.43-0.36,1.39-0.36,2.89v18.68c0,1.55,0.11,2.57,0.34,3.06s0.67,0.73,1.32,0.73c0.75,0,1.25-0.27,1.49-0.82
		c0.25-0.55,0.37-1.88,0.37-4.01V427.29z"/>
	<path d="M417.33,417.69l-0.46,5.02c1.69-3.59,4.13-5.49,7.33-5.71v13.42c-2.13,0-3.69,0.29-4.68,0.86c-1,0.57-1.61,1.37-1.84,2.4
		c-0.23,1.03-0.34,3.39-0.34,7.08v15.06h-11.61v-38.14H417.33z"/>
	<path d="M453.09,437.43h-15.03v8.25c0,1.72,0.12,2.84,0.37,3.33c0.25,0.5,0.73,0.75,1.44,0.75c0.88,0,1.47-0.33,1.77-0.99
		s0.45-1.94,0.45-3.84v-5.03h11.01v2.82c0,2.36-0.15,4.17-0.45,5.43s-0.99,2.62-2.08,4.05s-2.48,2.51-4.15,3.23
		c-1.68,0.72-3.78,1.08-6.31,1.08c-2.45,0-4.62-0.35-6.5-1.06c-1.88-0.71-3.34-1.68-4.38-2.92c-1.04-1.24-1.77-2.6-2.17-4.08
		c-0.4-1.49-0.6-3.65-0.6-6.48v-11.12c0-3.33,0.45-5.96,1.35-7.89c0.9-1.93,2.38-3.4,4.43-4.43c2.05-1.03,4.41-1.54,7.07-1.54
		c3.26,0,5.94,0.62,8.06,1.85c2.12,1.24,3.6,2.87,4.46,4.91c0.85,2.04,1.28,4.91,1.28,8.61V437.43z M441.45,431.22v-2.79
		c0-1.97-0.11-3.25-0.32-3.82c-0.21-0.57-0.64-0.86-1.29-0.86c-0.8,0-1.3,0.24-1.49,0.73s-0.29,1.81-0.29,3.95v2.79H441.45z"/>
	<path d="M467.26,432.46h-10.89v-2.56c0-2.95,0.34-5.23,1.02-6.83s2.05-3.01,4.1-4.24c2.05-1.23,4.71-1.84,7.99-1.84
		c3.93,0,6.89,0.69,8.88,2.08s3.19,3.09,3.59,5.12c0.4,2.02,0.6,6.18,0.6,12.49v19.14h-11.3v-3.4c-0.71,1.36-1.62,2.38-2.74,3.07
		c-1.12,0.68-2.46,1.02-4.01,1.02c-2.03,0-3.89-0.57-5.59-1.71c-1.7-1.14-2.54-3.64-2.54-7.49v-3.13c0-2.86,0.45-4.8,1.35-5.83
		c0.9-1.03,3.13-2.24,6.7-3.62c3.81-1.49,5.85-2.5,6.12-3.02c0.27-0.52,0.4-1.57,0.4-3.16c0-1.99-0.15-3.29-0.45-3.89
		c-0.3-0.6-0.79-0.91-1.48-0.91c-0.79,0-1.27,0.25-1.47,0.76c-0.19,0.51-0.29,1.83-0.29,3.95V432.46z M470.94,437.69
		c-1.86,1.36-2.94,2.5-3.23,3.42s-0.45,2.24-0.45,3.97c0,1.97,0.13,3.25,0.39,3.82c0.26,0.57,0.77,0.86,1.54,0.86
		c0.73,0,1.2-0.23,1.42-0.68c0.22-0.45,0.33-1.63,0.33-3.55V437.69z"/>
	<path d="M498.01,417.69l-0.2,3.63c0.9-1.44,1.97-2.52,3.22-3.24c1.25-0.72,2.66-1.08,4.25-1.08c3.1,0,5.55,1.44,7.33,4.32
		c0.98-1.44,2.08-2.52,3.31-3.24c1.23-0.72,2.59-1.08,4.08-1.08c1.97,0,3.61,0.48,4.9,1.44s2.12,2.13,2.49,3.52s0.55,3.65,0.55,6.77
		v27.1h-11.27v-24.86c0-3.26-0.11-5.27-0.33-6.05c-0.22-0.78-0.73-1.16-1.54-1.16c-0.82,0-1.36,0.38-1.6,1.15s-0.36,2.79-0.36,6.06
		v24.86h-11.27V431.6c0-3.74-0.09-5.98-0.27-6.73c-0.18-0.75-0.68-1.12-1.51-1.12c-0.52,0-0.96,0.2-1.32,0.59
		c-0.36,0.39-0.57,0.87-0.6,1.44c-0.04,0.57-0.06,1.77-0.06,3.61v26.44h-11.27v-38.14H498.01z"/>
	<path d="M389.94,479.93v5.89c-2.4,0-3.81,0.11-4.24,0.33c-0.43,0.22-0.65,0.85-0.65,1.88v1.21h4.89v6.04h-2.76v31.19h-11.61v-31.19
		h-2.39v-6.04h2.39c0-2.51,0.09-4.19,0.26-5.03s0.6-1.6,1.28-2.26c0.68-0.66,1.63-1.16,2.86-1.51c1.23-0.34,3.13-0.52,5.72-0.52
		H389.94z"/>
	<path d="M402.53,503.1h-10.89v-2.56c0-2.95,0.34-5.23,1.02-6.83c0.68-1.6,2.05-3.01,4.1-4.24s4.71-1.84,7.99-1.84
		c3.93,0,6.89,0.69,8.88,2.08c1.99,1.39,3.19,3.09,3.59,5.12s0.6,6.18,0.6,12.49v19.14h-11.3v-3.4c-0.71,1.36-1.62,2.38-2.74,3.07
		c-1.12,0.68-2.46,1.02-4.01,1.02c-2.03,0-3.89-0.57-5.59-1.71c-1.7-1.14-2.54-3.64-2.54-7.49v-3.13c0-2.86,0.45-4.8,1.35-5.83
		c0.9-1.03,3.13-2.24,6.7-3.62c3.81-1.49,5.85-2.5,6.12-3.02c0.27-0.52,0.4-1.57,0.4-3.16c0-1.99-0.15-3.29-0.45-3.89
		s-0.79-0.91-1.48-0.91c-0.79,0-1.27,0.25-1.47,0.76s-0.29,1.83-0.29,3.95V503.1z M406.21,508.33c-1.86,1.36-2.94,2.5-3.23,3.42
		c-0.3,0.92-0.45,2.24-0.45,3.97c0,1.97,0.13,3.25,0.39,3.82s0.77,0.86,1.54,0.86c0.73,0,1.2-0.23,1.42-0.68
		c0.22-0.45,0.33-1.63,0.33-3.55V508.33z"/>
	<path d="M447.48,502.72h-10.95v-4.4c0-1.53-0.12-2.57-0.37-3.12c-0.25-0.55-0.71-0.82-1.38-0.82c-0.67,0-1.12,0.24-1.35,0.72
		c-0.23,0.48-0.34,1.55-0.34,3.22v17.99c0,1.36,0.17,2.38,0.52,3.06s0.85,1.02,1.52,1.02c0.79,0,1.32-0.35,1.6-1.06
		c0.28-0.71,0.42-2.05,0.42-4.02v-4.54h10.35c-0.02,3.05-0.13,5.33-0.33,6.85c-0.2,1.52-0.84,3.09-1.93,4.68
		c-1.08,1.6-2.5,2.81-4.24,3.62c-1.74,0.81-3.9,1.22-6.47,1.22c-3.28,0-5.87-0.56-7.79-1.68c-1.92-1.12-3.27-2.69-4.07-4.71
		c-0.8-2.02-1.19-4.89-1.19-8.61v-10.84c0-3.24,0.33-5.68,0.98-7.33c0.65-1.65,2.04-3.12,4.17-4.41c2.13-1.29,4.71-1.94,7.76-1.94
		c3.03,0,5.62,0.64,7.76,1.93c2.15,1.28,3.57,2.9,4.28,4.86C447.13,496.37,447.48,499.14,447.48,502.72z"/>
	<path d="M463.18,483.24v6.01h3.13v6.04h-3.13v20.41c0,2.51,0.13,3.91,0.39,4.2c0.26,0.29,1.34,0.43,3.23,0.43v6.15h-4.68
		c-2.64,0-4.53-0.11-5.66-0.33c-1.13-0.22-2.13-0.73-2.99-1.52c-0.86-0.8-1.4-1.71-1.61-2.73s-0.32-3.43-0.32-7.23v-19.37h-2.5
		v-6.04h2.5v-6.01H463.18z"/>
	<path d="M495.14,501.72v9.34c0,3.43-0.17,5.94-0.52,7.54c-0.34,1.6-1.08,3.09-2.21,4.48c-1.13,1.39-2.58,2.41-4.35,3.08
		s-3.81,0.99-6.11,0.99c-2.57,0-4.74-0.28-6.52-0.85c-1.78-0.57-3.17-1.42-4.15-2.56c-0.99-1.14-1.69-2.52-2.11-4.14
		s-0.63-4.05-0.63-7.29v-9.77c0-3.54,0.38-6.31,1.15-8.31c0.77-1.99,2.15-3.59,4.14-4.8c1.99-1.21,4.54-1.81,7.65-1.81
		c2.61,0,4.84,0.39,6.71,1.16s3.31,1.79,4.33,3.03c1.02,1.25,1.71,2.53,2.08,3.85C494.95,497,495.14,499.01,495.14,501.72z
		 M483.52,498.84c0-1.95-0.11-3.19-0.32-3.69c-0.21-0.51-0.66-0.76-1.35-0.76s-1.15,0.25-1.38,0.76c-0.23,0.51-0.34,1.74-0.34,3.69
		v17.22c0,1.8,0.11,2.97,0.34,3.52c0.23,0.55,0.68,0.82,1.35,0.82c0.69,0,1.14-0.25,1.37-0.75c0.22-0.5,0.33-1.57,0.33-3.22V498.84z
		"/>
	<path d="M510.57,488.32l-0.46,5.02c1.69-3.59,4.13-5.49,7.33-5.71v13.42c-2.13,0-3.69,0.29-4.68,0.86c-1,0.57-1.61,1.37-1.84,2.4
		c-0.23,1.03-0.34,3.39-0.34,7.08v15.06h-11.61v-38.14H510.57z"/>
	<path d="M545.4,488.32l-3.32,27.59c-0.53,4.37-0.96,7.35-1.32,8.94c-0.36,1.59-0.95,2.9-1.77,3.94c-0.82,1.03-1.97,1.8-3.43,2.28
		c-1.47,0.49-3.81,0.73-7.03,0.73h-7.04v-6.09c1.8,0,2.97-0.09,3.48-0.27c0.52-0.18,0.78-0.59,0.78-1.22c0-0.31-0.24-1.64-0.72-4
		l-6.36-31.9h10.54l3.81,25.75l1.86-25.75H545.4z"/>
</g>
<path class="st0" d="M107.15,484.93c0,0,5.49,41.62,14.29,42.1"/>
</svg>
